<mxfile host="app.diagrams.net" modified="2024-06-02T15:22:16.670Z" agent="Mozilla/5.0 (Windows NT 10.0; Win64; x64) AppleWebKit/537.36 (KHTML, like Gecko) Chrome/125.0.0.0 Safari/537.36" etag="EV8e-CmX1crDPSHuFH8a" version="24.4.13" type="github">
  <diagram name="Page-1" id="10kOjsEKJzTqdRn1mjMD">
    <mxGraphModel dx="880" dy="434" grid="1" gridSize="10" guides="1" tooltips="1" connect="1" arrows="1" fold="1" page="1" pageScale="1" pageWidth="850" pageHeight="1100" math="0" shadow="0">
      <root>
        <mxCell id="0" />
        <mxCell id="1" parent="0" />
        <mxCell id="rJp3kxpnVCagqy1cTLjS-1" value="" style="image;aspect=fixed;perimeter=ellipsePerimeter;html=1;align=center;shadow=0;dashed=0;spacingTop=3;image=img/lib/active_directory/web_server.svg;" vertex="1" parent="1">
          <mxGeometry x="625" y="85" width="40" height="50" as="geometry" />
        </mxCell>
        <mxCell id="rJp3kxpnVCagqy1cTLjS-2" value="" style="image;aspect=fixed;perimeter=ellipsePerimeter;html=1;align=center;shadow=0;dashed=0;spacingTop=3;image=img/lib/active_directory/sql_server.svg;" vertex="1" parent="1">
          <mxGeometry x="745" y="95" width="38.5" height="50" as="geometry" />
        </mxCell>
        <mxCell id="rJp3kxpnVCagqy1cTLjS-3" value="" style="edgeStyle=orthogonalEdgeStyle;rounded=0;orthogonalLoop=1;jettySize=auto;html=1;" edge="1" parent="1" source="rJp3kxpnVCagqy1cTLjS-5" target="rJp3kxpnVCagqy1cTLjS-14">
          <mxGeometry relative="1" as="geometry" />
        </mxCell>
        <mxCell id="rJp3kxpnVCagqy1cTLjS-4" value="" style="edgeStyle=orthogonalEdgeStyle;rounded=0;orthogonalLoop=1;jettySize=auto;html=1;" edge="1" parent="1" source="rJp3kxpnVCagqy1cTLjS-5">
          <mxGeometry relative="1" as="geometry">
            <mxPoint x="250" y="285" as="targetPoint" />
          </mxGeometry>
        </mxCell>
        <mxCell id="rJp3kxpnVCagqy1cTLjS-5" value="" style="fontColor=#0066CC;verticalAlign=top;verticalLabelPosition=bottom;labelPosition=center;align=center;html=1;outlineConnect=0;fillColor=#CCCCCC;strokeColor=#6881B3;gradientColor=none;gradientDirection=north;strokeWidth=2;shape=mxgraph.networks.pc;" vertex="1" parent="1">
          <mxGeometry x="73" y="250" width="100" height="70" as="geometry" />
        </mxCell>
        <mxCell id="rJp3kxpnVCagqy1cTLjS-6" style="edgeStyle=orthogonalEdgeStyle;rounded=0;orthogonalLoop=1;jettySize=auto;html=1;" edge="1" parent="1" source="rJp3kxpnVCagqy1cTLjS-7">
          <mxGeometry relative="1" as="geometry">
            <mxPoint x="545" y="120" as="targetPoint" />
          </mxGeometry>
        </mxCell>
        <mxCell id="rJp3kxpnVCagqy1cTLjS-7" value="SERVER 1" style="rounded=0;whiteSpace=wrap;html=1;fillColor=none;gradientColor=default;verticalAlign=top;fontSize=14;fontStyle=1" vertex="1" parent="1">
          <mxGeometry x="603" y="30" width="192" height="180" as="geometry" />
        </mxCell>
        <mxCell id="rJp3kxpnVCagqy1cTLjS-8" value="web server&lt;div&gt;&lt;span style=&quot;color: rgb(51, 51, 51); font-family: aktiv-grotesk, sans-serif; font-size: 14px; font-weight: 400; text-align: left; background-color: rgb(255, 255, 255);&quot;&gt;Nginx&lt;/span&gt;&lt;br&gt;&lt;/div&gt;" style="rounded=0;whiteSpace=wrap;html=1;fontStyle=1;fillColor=none;strokeColor=none;" vertex="1" parent="1">
          <mxGeometry x="605" y="145" width="80" height="30" as="geometry" />
        </mxCell>
        <mxCell id="rJp3kxpnVCagqy1cTLjS-9" value="MSQL&lt;div&gt;server&lt;/div&gt;" style="rounded=0;whiteSpace=wrap;html=1;fillColor=none;strokeColor=none;fontStyle=1" vertex="1" parent="1">
          <mxGeometry x="725" y="135" width="70" height="60" as="geometry" />
        </mxCell>
        <mxCell id="rJp3kxpnVCagqy1cTLjS-10" value="CLIENT" style="rounded=0;whiteSpace=wrap;html=1;fontStyle=1;fillColor=none;strokeColor=none;" vertex="1" parent="1">
          <mxGeometry x="105" y="325" width="50" height="40" as="geometry" />
        </mxCell>
        <mxCell id="rJp3kxpnVCagqy1cTLjS-11" value="" style="outlineConnect=0;dashed=0;verticalLabelPosition=bottom;verticalAlign=top;align=center;html=1;shape=mxgraph.aws3.android;fillColor=#5A69A4;gradientColor=none;" vertex="1" parent="1">
          <mxGeometry x="685" y="90" width="40" height="40" as="geometry" />
        </mxCell>
        <mxCell id="rJp3kxpnVCagqy1cTLjS-12" value="PHP&lt;div&gt;code&amp;nbsp;&lt;/div&gt;&lt;div&gt;base&lt;/div&gt;" style="rounded=0;whiteSpace=wrap;html=1;fontStyle=1;fillColor=none;strokeColor=none;" vertex="1" parent="1">
          <mxGeometry x="686" y="136" width="40" height="59" as="geometry" />
        </mxCell>
        <mxCell id="rJp3kxpnVCagqy1cTLjS-13" style="edgeStyle=orthogonalEdgeStyle;rounded=0;orthogonalLoop=1;jettySize=auto;html=1;" edge="1" parent="1" source="rJp3kxpnVCagqy1cTLjS-14">
          <mxGeometry relative="1" as="geometry">
            <mxPoint x="123" y="250" as="targetPoint" />
          </mxGeometry>
        </mxCell>
        <mxCell id="rJp3kxpnVCagqy1cTLjS-14" value="" style="image;aspect=fixed;html=1;points=[];align=center;fontSize=12;image=img/lib/azure2/networking/DNS_Zones.svg;" vertex="1" parent="1">
          <mxGeometry x="91" y="100" width="64" height="64" as="geometry" />
        </mxCell>
        <mxCell id="rJp3kxpnVCagqy1cTLjS-15" value="" style="edgeStyle=orthogonalEdgeStyle;rounded=0;orthogonalLoop=1;jettySize=auto;html=1;" edge="1" parent="1" source="rJp3kxpnVCagqy1cTLjS-16">
          <mxGeometry relative="1" as="geometry">
            <mxPoint x="350" y="285" as="targetPoint" />
          </mxGeometry>
        </mxCell>
        <mxCell id="rJp3kxpnVCagqy1cTLjS-16" value="" style="outlineConnect=0;dashed=0;verticalLabelPosition=bottom;verticalAlign=top;align=center;html=1;shape=mxgraph.aws3.internet_3;fillColor=#D2D3D3;gradientColor=none;" vertex="1" parent="1">
          <mxGeometry x="259.75" y="264" width="61.83" height="42" as="geometry" />
        </mxCell>
        <mxCell id="rJp3kxpnVCagqy1cTLjS-17" value="HTTPS request&lt;div&gt;&lt;font style=&quot;font-size: 10px;&quot;&gt;www.foobar.com&lt;/font&gt;&lt;/div&gt;" style="rounded=0;whiteSpace=wrap;html=1;fontStyle=1;fillColor=none;strokeColor=none;" vertex="1" parent="1">
          <mxGeometry x="170" y="245" width="120" height="35" as="geometry" />
        </mxCell>
        <mxCell id="rJp3kxpnVCagqy1cTLjS-18" value="HTTP response" style="rounded=0;whiteSpace=wrap;html=1;fontStyle=1;fillColor=none;strokeColor=none;" vertex="1" parent="1">
          <mxGeometry x="490" y="78" width="120" height="35" as="geometry" />
        </mxCell>
        <mxCell id="rJp3kxpnVCagqy1cTLjS-19" value="www.foobar.com" style="rounded=0;whiteSpace=wrap;html=1;fontStyle=1;rotation=-90;fontSize=9;fillColor=none;strokeColor=none;" vertex="1" parent="1">
          <mxGeometry x="50" y="189" width="105" height="34" as="geometry" />
        </mxCell>
        <mxCell id="rJp3kxpnVCagqy1cTLjS-20" value="8.8.8.8" style="rounded=0;whiteSpace=wrap;html=1;rotation=90;fillColor=none;strokeColor=none;" vertex="1" parent="1">
          <mxGeometry x="85" y="176" width="120" height="60" as="geometry" />
        </mxCell>
        <mxCell id="rJp3kxpnVCagqy1cTLjS-21" value="DNS&lt;div&gt;type A&lt;/div&gt;" style="rounded=0;whiteSpace=wrap;html=1;fontStyle=1;fillColor=none;strokeColor=none;" vertex="1" parent="1">
          <mxGeometry x="125" y="110" width="120" height="60" as="geometry" />
        </mxCell>
        <mxCell id="rJp3kxpnVCagqy1cTLjS-22" value="Internet" style="rounded=0;whiteSpace=wrap;html=1;fontStyle=1;fillColor=none;strokeColor=none;" vertex="1" parent="1">
          <mxGeometry x="236.93" y="318" width="120" height="35" as="geometry" />
        </mxCell>
        <mxCell id="rJp3kxpnVCagqy1cTLjS-23" value="" style="image;aspect=fixed;perimeter=ellipsePerimeter;html=1;align=center;shadow=0;dashed=0;spacingTop=3;image=img/lib/active_directory/web_server.svg;" vertex="1" parent="1">
          <mxGeometry x="625" y="313" width="40" height="50" as="geometry" />
        </mxCell>
        <mxCell id="rJp3kxpnVCagqy1cTLjS-24" value="" style="image;aspect=fixed;perimeter=ellipsePerimeter;html=1;align=center;shadow=0;dashed=0;spacingTop=3;image=img/lib/active_directory/sql_server.svg;" vertex="1" parent="1">
          <mxGeometry x="745" y="323" width="38.5" height="50" as="geometry" />
        </mxCell>
        <mxCell id="rJp3kxpnVCagqy1cTLjS-25" value="SERVER 2" style="rounded=0;whiteSpace=wrap;html=1;fillColor=none;gradientColor=default;verticalAlign=top;fontSize=14;fontStyle=1" vertex="1" parent="1">
          <mxGeometry x="603" y="258" width="192" height="180" as="geometry" />
        </mxCell>
        <mxCell id="rJp3kxpnVCagqy1cTLjS-26" value="MSQL&lt;div&gt;server&lt;/div&gt;" style="rounded=0;whiteSpace=wrap;html=1;fillColor=none;strokeColor=none;fontStyle=1" vertex="1" parent="1">
          <mxGeometry x="725" y="363" width="70" height="60" as="geometry" />
        </mxCell>
        <mxCell id="rJp3kxpnVCagqy1cTLjS-27" value="" style="outlineConnect=0;dashed=0;verticalLabelPosition=bottom;verticalAlign=top;align=center;html=1;shape=mxgraph.aws3.android;fillColor=#5A69A4;gradientColor=none;" vertex="1" parent="1">
          <mxGeometry x="685" y="318" width="40" height="40" as="geometry" />
        </mxCell>
        <mxCell id="rJp3kxpnVCagqy1cTLjS-28" value="PHP&lt;div&gt;code&amp;nbsp;&lt;/div&gt;&lt;div&gt;base&lt;/div&gt;" style="rounded=0;whiteSpace=wrap;html=1;fontStyle=1;fillColor=none;strokeColor=none;" vertex="1" parent="1">
          <mxGeometry x="686" y="364" width="40" height="59" as="geometry" />
        </mxCell>
        <mxCell id="rJp3kxpnVCagqy1cTLjS-29" style="edgeStyle=orthogonalEdgeStyle;rounded=0;orthogonalLoop=1;jettySize=auto;html=1;" edge="1" parent="1">
          <mxGeometry relative="1" as="geometry">
            <mxPoint x="540" y="176" as="targetPoint" />
            <mxPoint x="479.5" y="280.5" as="sourcePoint" />
            <Array as="points">
              <mxPoint x="480" y="228" />
              <mxPoint x="481" y="228" />
              <mxPoint x="481" y="176" />
            </Array>
          </mxGeometry>
        </mxCell>
        <mxCell id="rJp3kxpnVCagqy1cTLjS-30" value="" style="outlineConnect=0;dashed=0;verticalLabelPosition=bottom;verticalAlign=top;align=center;html=1;shape=mxgraph.aws3.application_load_balancer;fillColor=#F58536;gradientColor=none;" vertex="1" parent="1">
          <mxGeometry x="457.48" y="254.5" width="45.04" height="47" as="geometry" />
        </mxCell>
        <mxCell id="rJp3kxpnVCagqy1cTLjS-31" value="Load balancer&lt;div&gt;&lt;span style=&quot;color: rgb(51, 51, 51); font-family: aktiv-grotesk, sans-serif; font-size: 14px; font-weight: 400; text-align: left; background-color: rgb(255, 255, 255);&quot;&gt;HAproxy&lt;/span&gt;&lt;br&gt;&lt;/div&gt;" style="rounded=0;whiteSpace=wrap;html=1;fontStyle=1;fillColor=none;strokeColor=none;" vertex="1" parent="1">
          <mxGeometry x="430" y="313" width="120" height="35" as="geometry" />
        </mxCell>
        <mxCell id="rJp3kxpnVCagqy1cTLjS-32" value="web server&lt;div&gt;&lt;span style=&quot;color: rgb(51, 51, 51); font-family: aktiv-grotesk, sans-serif; font-size: 14px; font-weight: 400; text-align: left; background-color: rgb(255, 255, 255);&quot;&gt;Nginx&lt;/span&gt;&lt;br&gt;&lt;/div&gt;" style="rounded=0;whiteSpace=wrap;html=1;fontStyle=1;fillColor=none;strokeColor=none;" vertex="1" parent="1">
          <mxGeometry x="605" y="378.5" width="80" height="30" as="geometry" />
        </mxCell>
        <mxCell id="rJp3kxpnVCagqy1cTLjS-33" value="" style="image;html=1;image=img/lib/clip_art/networking/Firewall_128x128.png" vertex="1" parent="1">
          <mxGeometry x="550" y="143" width="45" height="45" as="geometry" />
        </mxCell>
        <mxCell id="rJp3kxpnVCagqy1cTLjS-34" value="" style="image;html=1;image=img/lib/clip_art/networking/Firewall_128x128.png" vertex="1" parent="1">
          <mxGeometry x="553.5" y="340" width="41.5" height="41.5" as="geometry" />
        </mxCell>
        <mxCell id="rJp3kxpnVCagqy1cTLjS-35" value="" style="image;html=1;image=img/lib/clip_art/networking/Firewall_128x128.png" vertex="1" parent="1">
          <mxGeometry x="417.48" y="261.5" width="40" height="40" as="geometry" />
        </mxCell>
        <mxCell id="rJp3kxpnVCagqy1cTLjS-36" style="edgeStyle=orthogonalEdgeStyle;rounded=0;orthogonalLoop=1;jettySize=auto;html=1;" edge="1" parent="1" source="rJp3kxpnVCagqy1cTLjS-37">
          <mxGeometry relative="1" as="geometry">
            <mxPoint x="410" y="285" as="targetPoint" />
          </mxGeometry>
        </mxCell>
        <mxCell id="rJp3kxpnVCagqy1cTLjS-37" value="" style="sketch=0;outlineConnect=0;fontColor=#232F3E;gradientColor=none;fillColor=#232F3D;strokeColor=none;dashed=0;verticalLabelPosition=bottom;verticalAlign=top;align=center;html=1;fontSize=12;fontStyle=0;aspect=fixed;pointerEvents=1;shape=mxgraph.aws4.ssl_padlock;" vertex="1" parent="1">
          <mxGeometry x="350" y="268.5" width="33.87" height="33" as="geometry" />
        </mxCell>
        <mxCell id="rJp3kxpnVCagqy1cTLjS-38" value="SLL" style="rounded=0;whiteSpace=wrap;html=1;strokeColor=none;fillColor=none;fontStyle=1" vertex="1" parent="1">
          <mxGeometry x="341.93" y="301.5" width="50" height="38.5" as="geometry" />
        </mxCell>
        <mxCell id="rJp3kxpnVCagqy1cTLjS-39" value="firewall" style="rounded=0;whiteSpace=wrap;html=1;fillColor=none;strokeColor=none;fontStyle=1" vertex="1" parent="1">
          <mxGeometry x="417.48" y="228" width="40" height="30" as="geometry" />
        </mxCell>
        <mxCell id="rJp3kxpnVCagqy1cTLjS-40" value="firewall" style="rounded=0;whiteSpace=wrap;html=1;fillColor=none;strokeColor=none;fontStyle=1" vertex="1" parent="1">
          <mxGeometry x="554.25" y="381.5" width="40" height="30" as="geometry" />
        </mxCell>
        <mxCell id="rJp3kxpnVCagqy1cTLjS-41" value="firewall" style="rounded=0;whiteSpace=wrap;html=1;fillColor=none;strokeColor=none;fontStyle=1" vertex="1" parent="1">
          <mxGeometry x="550" y="191" width="40" height="30" as="geometry" />
        </mxCell>
      </root>
    </mxGraphModel>
  </diagram>
</mxfile>
